<svg version="1.1" id="Layer_1" xmlns="http://www.w3.org/2000/svg" xmlns:xlink="http://www.w3.org/1999/xlink" x="0px" y="0px"
	 width="100%" viewBox="0 0 720 950" enable-background="new 0 0 720 800" xml:space="preserve">
<path fill="white" opacity="1.000000" stroke="none" 
	d="
M265.931274,259.787781 
	C301.009216,246.565781 336.934998,240.155930 373.972931,242.074005 
	C437.100861,245.343201 493.111511,267.048645 540.859619,308.947632 
	C586.933777,349.377777 616.097046,399.849091 627.462280,459.922577 
	C643.347839,543.888672 624.117615,619.607971 570.013062,685.832886 
	C529.388916,735.557495 476.947845,766.721619 413.956482,778.687134 
	C337.131104,793.280457 266.150787,777.927246 202.771744,731.823425 
	C142.449112,687.942932 106.003021,628.291260 95.264313,554.721863 
	C81.539062,460.692108 110.430145,380.197906 178.888885,314.233429 
	C203.908264,290.125610 233.164307,272.426147 265.931274,259.787781 
M514.915649,726.441406 
	C511.743835,728.934937 508.571991,731.428528 505.400177,733.922058 
	C507.193634,733.658081 508.633850,732.908081 510.007568,732.051331 
	C547.206055,708.851868 574.637024,676.686462 594.670044,638.158447 
	C621.986389,585.622986 630.486877,529.908752 620.741455,471.483490 
	C611.641296,416.926758 588.201904,369.247925 549.017822,330.333160 
	C481.470673,263.250336 399.812469,237.582657 306.536682,256.000275 
	C227.869141,271.533417 168.086853,315.346802 130.275665,387.022766 
	C103.810410,437.191010 95.090714,490.740753 102.588722,546.798767 
	C107.922455,586.675903 121.990288,623.457764 144.270355,657.046143 
	C152.084473,668.826355 161.001709,679.679932 171.063766,690.448059 
	C170.916870,689.437866 170.974060,689.079346 170.821518,688.888245 
	C128.047440,635.290710 108.884743,574.428223 114.656273,505.949554 
	C117.494270,472.277008 127.631149,440.775818 143.554810,411.073578 
	C145.383759,407.662079 146.852036,404.273560 147.255478,400.331177 
	C147.894791,394.084015 150.267075,388.543915 156.409363,385.855713 
	C159.653641,384.435791 161.776688,382.194641 163.891830,379.551025 
	C224.037918,304.377014 302.024078,271.604065 397.618744,283.180359 
	C441.672821,288.515228 481.489014,305.955261 515.937927,334.082306 
	C583.305481,389.087067 614.725342,460.439056 610.306213,547.295898 
	C608.393921,584.880737 596.998413,619.808289 578.593628,652.525208 
	C562.449280,681.223816 541.061340,705.416626 514.915649,726.441406 
M389.916168,723.414246 
	C421.768402,707.700562 435.570862,673.824280 423.642853,640.636658 
	C412.497864,609.627563 378.003113,591.853882 345.451965,600.348206 
	C313.366638,608.720947 291.894501,641.849976 297.521912,674.298828 
	C304.973724,717.267639 349.470093,741.248596 389.916168,723.414246 
M482.913239,318.616028 
	C429.980621,288.836853 373.616180,279.484314 314.115723,291.476288 
	C254.508148,303.489807 206.681549,334.589569 168.934921,382.397369 
	C172.017075,384.403351 174.234650,383.844940 176.340820,383.889435 
	C183.832596,384.047791 191.348831,383.814697 198.808350,384.368713 
	C201.963364,384.603027 204.138718,384.058746 206.399155,381.941010 
	C244.386917,346.351593 289.146118,325.563995 341.081573,320.559570 
	C377.735321,317.027649 413.150696,322.218292 447.242371,336.053955 
	C475.056946,347.342133 499.645050,363.662628 521.027771,384.720459 
	C523.845093,387.494965 526.311584,388.125824 529.840881,386.457977 
	C535.276123,383.889343 541.097534,383.630737 546.969543,384.467804 
	C550.352600,384.950043 553.710693,385.607452 558.323364,386.399536 
	C537.644348,357.989166 512.738220,336.126862 482.913239,318.616028 
M454.152496,345.385895 
	C427.990326,333.229279 400.388123,326.647888 371.666992,325.520599 
	C332.461609,323.981750 295.231293,332.118469 260.374390,350.431946 
	C242.573792,359.784210 226.227768,371.182953 211.727631,385.150452 
	C210.528107,386.305939 208.077179,387.384186 209.448334,389.529449 
	C211.318085,392.454803 211.604279,396.005280 213.421112,399.189423 
	C214.240677,398.617462 214.871460,398.340881 215.277161,397.870300 
	C225.871948,385.579529 239.572830,382.052460 255.012939,384.280731 
	C259.800842,384.971710 263.715729,384.030273 267.843597,381.833405 
	C293.354187,368.256378 320.640381,360.636780 349.430847,358.917023 
	C385.733521,356.748505 420.401550,363.465973 452.962036,379.899902 
	C458.614288,382.752716 464.300110,384.308350 470.560730,384.702637 
	C490.861725,385.981171 500.898804,394.785187 505.260254,414.874939 
	C506.025879,418.401459 507.937622,420.708282 511.221069,421.975464 
	C512.947815,419.902161 512.541382,417.655273 512.697021,415.529907 
	C513.175598,408.993347 514.130432,402.468018 517.792175,396.942444 
	C520.346069,393.088593 519.281860,390.792419 516.335327,388.004974 
	C498.032776,370.691010 477.738281,356.311768 454.152496,345.385895 
M524.735107,704.232544 
	C510.966461,718.877075 495.251770,731.160400 478.354095,742.008362 
	C535.918579,713.083435 595.514832,644.776367 604.708862,551.093933 
	C608.730164,510.118805 590.538269,424.376587 571.509644,408.313263 
	C572.456543,419.443726 572.662231,430.428345 573.584717,441.328308 
	C574.662109,454.059235 575.108459,466.926544 578.773621,479.360260 
	C588.939270,513.846008 592.158447,549.023071 585.895142,584.442505 
	C577.809204,630.169006 557.812317,670.252502 524.735107,704.232544 
M136.548904,526.145508 
	C136.995361,517.313721 137.881180,508.430023 140.423141,500.034698 
	C146.482010,480.023926 148.390091,459.630585 147.631363,438.896881 
	C147.420258,433.128265 147.679733,427.205200 145.282288,420.209473 
	C126.243301,459.094971 117.593880,498.603455 119.665558,540.408997 
	C121.733803,582.145081 133.476166,620.925659 155.227798,656.630737 
	C176.126221,690.935303 223.100677,735.623901 242.906967,739.864075 
	C229.215637,730.928101 216.622406,721.062805 205.202469,709.850647 
	C168.072769,673.396606 145.309219,629.495056 137.941895,577.866211 
	C135.537735,561.018188 134.726059,544.059387 136.548904,526.145508 
M295.611969,638.285339 
	C307.247742,609.980042 328.930969,595.336670 359.132751,592.048584 
	C358.828033,591.150208 358.782501,590.428528 358.405914,589.993286 
	C351.921722,582.499207 347.834167,573.927124 346.405518,564.079590 
	C346.030609,561.495483 344.120636,560.985168 341.883972,561.658630 
	C338.061279,562.809631 334.291168,564.137634 330.459656,565.256714 
	C323.905701,567.171143 319.377899,570.395813 320.800873,578.308350 
	C321.107391,580.013000 320.431061,581.936523 320.029602,583.719116 
	C318.241943,591.656067 313.200989,596.001648 305.437347,596.316284 
	C302.437103,596.437805 299.437469,596.398376 296.523743,595.487000 
	C293.140106,594.428772 291.002838,595.730530 289.057922,598.654358 
	C267.059448,631.724792 270.522278,677.240784 297.618622,706.358704 
	C302.603790,711.715820 307.700409,717.257080 315.422943,719.687622 
	C293.556152,696.425781 284.478729,670.166809 295.611969,638.285339 
M440.640503,380.563782 
	C413.148529,368.587006 384.330658,363.263000 354.462280,364.519165 
	C324.784943,365.767303 296.599182,372.918304 269.623322,387.784790 
	C275.660858,393.006195 280.853851,397.358765 284.374847,404.060730 
	C284.952728,401.165527 285.276886,399.197357 285.743530,397.263550 
	C287.672638,389.268616 292.983826,384.346497 301.226898,384.122192 
	C312.370575,383.818909 323.550964,383.402649 334.674652,384.803955 
	C341.003357,385.601227 346.190918,388.285126 349.108978,394.185974 
	C351.161621,398.336823 353.311890,397.791870 355.708618,394.718994 
	C371.023712,375.083527 407.187164,379.186096 419.503082,396.144745 
	C422.291473,399.984253 423.820221,399.749420 425.708130,395.269684 
	C428.357025,388.984100 432.836395,385.445648 439.485535,384.339813 
	C440.884766,384.107086 442.508392,384.027069 443.499176,382.642883 
	C443.318512,382.331146 443.223785,381.958832 442.986298,381.800079 
	C442.437775,381.433380 441.820038,381.170166 440.640503,380.563782 
M433.456604,670.813782 
	C431.692749,691.203735 421.513306,707.259399 407.424408,721.358276 
	C431.669373,707.181763 445.833344,685.930359 449.274414,658.413696 
	C452.966095,628.893005 443.696716,603.412048 421.018066,582.323425 
	C415.624359,592.188293 404.849487,594.335693 395.654510,600.111145 
	C422.320740,616.645447 435.231415,639.446228 433.456604,670.813782 
M484.453644,596.426147 
	C474.514618,593.127380 471.107269,588.539734 470.980499,577.501343 
	C470.848724,566.027710 471.030121,554.550659 471.028320,543.075134 
	C471.027100,535.264160 465.501556,530.948975 460.820618,525.852600 
	C458.895111,527.906128 459.170013,529.843079 459.164429,531.609619 
	C459.133362,541.432373 459.304688,551.256409 459.207336,561.078003 
	C459.169739,564.874023 460.058380,568.164551 462.028046,571.452087 
	C472.339813,588.663330 477.772766,607.468201 478.121490,627.426025 
	C478.764557,664.234070 464.806854,694.764160 437.049591,718.981628 
	C435.270508,720.533936 433.126678,721.852112 432.113098,724.217529 
	C433.775208,725.097107 434.670197,724.177063 435.578888,723.527405 
	C475.989502,694.636230 496.208832,655.720154 493.887573,605.705994 
	C493.509552,597.560852 493.279510,597.571533 484.453644,596.426147 
M255.207840,654.394470 
	C261.624237,687.511780 288.831238,716.705322 303.636078,721.790222 
	C301.246582,716.685608 296.460510,714.179260 293.077240,710.406494 
	C264.015594,677.999817 260.416718,631.206665 284.580627,594.972900 
	C287.202057,591.042114 287.085327,587.759827 285.578796,583.847717 
	C284.299988,580.526917 282.670715,579.822388 280.425995,582.945435 
	C275.947479,589.176331 269.761322,592.951111 262.562439,595.006104 
	C258.663177,596.119202 256.947021,598.475342 255.998032,602.213379 
	C251.665924,619.277344 251.188171,636.374451 255.207840,654.394470 
M457.293488,685.805359 
	C479.599335,648.745422 473.451996,601.295776 460.024750,582.810120 
	C457.749542,588.810303 454.582611,593.656738 448.238586,595.627930 
	C442.334900,597.462158 442.282867,597.826660 445.124908,603.185791 
	C452.443390,616.985840 456.157196,631.818176 456.074829,647.296753 
	C455.930359,674.445740 445.575439,697.413574 425.799377,716.070557 
	C422.637238,719.053772 419.394043,721.951111 416.188324,724.888123 
	C433.921295,716.396057 446.854431,702.912781 457.293488,685.805359 
M141.480850,545.158569 
	C142.307144,557.592773 142.289398,570.089539 144.496445,582.418640 
	C154.434845,637.937500 181.103989,683.607544 224.922470,719.194275 
	C230.133926,723.426636 235.587189,727.308044 241.741562,730.187073 
	C238.234268,726.486328 234.500519,723.072021 230.668182,719.772278 
	C194.044159,688.237793 170.791611,648.909668 161.527084,601.391846 
	C161.094559,599.173462 160.898758,596.704590 158.374252,595.494690 
	C149.813614,591.392090 146.876953,584.258240 146.871384,575.143982 
	C146.861923,559.669434 148.875473,544.242554 147.714905,528.740051 
	C147.205048,521.929382 146.678009,519.319885 143.831635,516.328613 
	C141.943893,525.718811 141.828369,534.999329 141.480850,545.158569 
M391.164246,461.439819 
	C391.709839,459.529877 392.470825,457.652435 392.765137,455.704529 
	C394.358765,445.157684 394.067444,444.892609 383.503662,443.888184 
	C381.619446,443.709045 380.486206,444.025635 379.380035,445.699188 
	C371.201965,458.072113 356.418030,458.140411 347.921906,445.802673 
	C346.556122,443.819336 345.107971,443.188934 342.925079,443.597443 
	C337.371460,444.636719 331.834900,445.790314 326.253357,446.650482 
	C321.601685,447.367310 319.681152,449.684875 320.257050,454.462097 
	C320.632782,457.578766 320.597717,460.806396 320.263885,463.932739 
	C319.763824,468.615265 321.661163,470.193420 326.200500,469.866272 
	C331.690887,469.470581 337.783905,468.853729 342.216217,472.180084 
	C347.827423,476.391205 353.688141,475.622070 359.729736,475.561218 
	C361.762238,475.540741 363.773193,475.248047 365.143585,473.514862 
	C369.247925,468.323730 374.807312,466.799988 381.112091,466.999023 
	C385.198090,467.128082 388.669922,465.931366 391.164246,461.439819 
M542.964355,555.957275 
	C545.514771,578.280212 545.203308,600.475037 539.754150,622.400940 
	C529.018494,665.597351 505.556335,700.360291 470.151917,727.185547 
	C468.356598,728.545837 466.667664,730.046509 464.929199,731.481873 
	C471.673889,729.099670 477.365784,725.221069 482.824158,720.952942 
	C522.320374,690.068909 547.197571,650.118408 557.322937,600.990784 
	C558.065918,597.386230 558.039490,594.281982 555.056458,591.407898 
	C552.238159,588.692566 550.935425,584.951660 550.643921,581.027161 
	C549.990723,572.233887 549.438416,563.432861 548.886108,554.632507 
	C548.703674,551.726868 548.076660,548.859009 544.451660,549.456360 
	C540.902039,550.041321 542.677124,553.011597 542.964355,555.957275 
M225.745453,633.421570 
	C224.317612,620.644348 223.965988,607.865234 225.563507,595.069763 
	C225.680634,594.131714 225.648102,592.763611 225.083618,592.218689 
	C221.453415,588.714905 217.655472,585.384827 213.282379,581.427429 
	C211.278229,588.200195 207.459839,593.195496 208.159210,599.797424 
	C208.665482,604.576233 208.559753,609.405579 209.148972,614.222046 
	C213.990784,653.801453 231.465988,686.690979 261.168945,713.162842 
	C263.652130,715.375916 266.270844,717.461487 268.982605,719.386597 
	C271.647797,721.278564 274.511749,722.890564 277.288483,724.625427 
	C249.998306,700.105042 231.556458,670.875183 225.745453,633.421570 
M230.460876,604.045166 
	C229.281113,627.559021 233.485901,649.995605 243.537781,671.358887 
	C254.529221,694.719116 278.940033,719.806335 289.273193,721.858032 
	C288.456604,719.448975 286.404510,718.174500 284.737213,716.642639 
	C269.198303,702.365906 258.104004,685.214172 251.786057,665.103027 
	C245.525986,645.176086 244.873077,624.946594 249.421143,604.548828 
	C250.979187,597.561096 250.035950,596.462646 242.736343,596.301941 
	C240.743317,596.258118 238.709167,596.281555 236.771957,595.888977 
	C233.084793,595.141724 230.891541,595.954224 231.084091,600.219360 
	C231.127975,601.191711 230.764786,602.182495 230.460876,604.045166 
M487.515167,704.014221 
	C526.719055,663.367493 542.966370,614.973877 536.929565,559.061646 
	C535.988037,559.597046 535.576233,560.353149 535.518616,561.135315 
	C535.079468,567.104065 534.736023,573.079712 534.310242,579.049500 
	C533.881958,585.055481 532.384216,590.742981 527.144226,594.324158 
	C523.355225,596.913818 522.481567,600.221313 522.277283,604.507874 
	C520.527405,641.241577 507.326599,673.444763 483.536499,701.405151 
	C474.462799,712.069458 463.799103,721.011414 453.111298,729.981934 
	C466.136993,723.777710 476.896057,714.574036 487.515167,704.014221 
M208.272552,526.240479 
	C210.404572,520.366882 214.750244,517.114868 220.733459,515.990662 
	C222.822128,515.598206 224.423737,514.856750 225.610672,513.005981 
	C227.942596,509.369690 230.422073,505.827637 232.860443,502.260193 
	C233.718613,501.004608 234.884476,499.635590 233.298676,498.324493 
	C227.200912,493.283234 221.663849,487.644073 216.236267,481.545197 
	C213.608871,484.578461 212.350647,487.211609 212.234940,490.610321 
	C212.037460,496.411163 209.804947,501.301514 204.389984,504.149078 
	C202.086731,505.360352 201.323151,507.551300 200.397263,509.663605 
	C195.038589,521.888916 191.196121,534.608032 188.673859,547.686584 
	C187.754868,552.451904 186.564560,557.318604 187.254593,562.597595 
	C193.267044,562.944031 199.084381,562.607605 204.647354,564.305359 
	C206.470856,561.066833 206.605652,557.979187 206.713730,554.815430 
	C207.030594,545.539246 205.670929,536.182251 208.272552,526.240479 
M489.374115,667.751648 
	C479.751495,690.766235 464.148499,709.221680 444.314117,725.262634 
	C447.317047,725.637512 448.551147,724.391602 449.866455,723.501160 
	C472.764893,708.000610 489.860626,687.506836 501.709686,662.630432 
	C510.021851,645.179626 514.624451,626.737793 516.229736,607.442871 
	C516.946350,598.828918 517.366638,598.699402 509.589417,595.912720 
	C508.494537,595.520325 507.430115,595.036743 506.369446,594.555969 
	C501.121185,592.177124 498.756989,593.809265 499.464722,599.637695 
	C502.302368,623.006042 498.525574,645.389954 489.374115,667.751648 
M256.347321,717.136353 
	C236.889175,699.493286 221.987396,678.688721 212.736115,654.008484 
	C206.617630,637.685852 202.866028,620.892700 202.503098,603.364197 
	C202.356537,596.286377 200.723633,595.600647 191.644714,596.285583 
	C185.915527,596.717834 187.070541,600.746887 187.556152,603.985535 
	C194.280670,648.833191 214.963272,686.002808 249.442627,715.425476 
	C252.581665,718.104065 255.518250,721.421936 260.042969,722.620178 
	C260.296387,719.747437 258.002441,719.070679 256.347321,717.136353 
M350.799927,490.082245 
	C348.768677,501.421936 343.197601,506.062164 331.626678,506.039856 
	C329.961365,506.036621 328.285126,506.107361 326.632935,505.947540 
	C321.961823,505.495667 319.683838,507.323029 320.320282,512.205505 
	C320.448425,513.188599 320.336212,514.201965 320.351746,515.201050 
	C320.440491,520.911743 321.502533,521.848206 326.913422,519.924866 
	C338.150879,515.930420 350.077484,515.506592 361.585785,512.937561 
	C364.880463,512.202087 368.162506,513.270386 371.430420,514.020386 
	C377.254944,515.357056 383.141113,516.428955 389.010651,517.564331 
	C391.862213,518.115906 392.825836,516.760254 392.897278,513.980896 
	C393.119141,505.348358 388.644348,500.700958 379.869995,500.709686 
	C369.269318,500.720245 364.076416,496.351257 362.933838,485.845032 
	C362.568542,482.485840 361.534973,481.236725 358.087677,481.279480 
	C351.011627,481.367279 350.887909,481.334106 350.799927,490.082245 
M499.655823,719.135864 
	C523.257019,700.306274 542.228088,677.587219 556.652039,651.083008 
	C565.283020,635.223511 571.769409,618.511230 576.080200,600.968628 
	C576.496582,599.274292 577.538452,597.344849 574.912720,596.380554 
	C569.529419,594.403564 564.249451,597.302856 563.050354,602.898438 
	C562.771790,604.198242 562.485962,605.496643 562.189331,606.792358 
	C552.188782,650.479492 530.646973,687.335388 496.980865,717.028442 
	C487.394073,725.483826 477.356262,733.332397 466.507233,740.152771 
	C478.066681,734.380432 489.085266,727.780945 499.655823,719.135864 
M209.678711,679.772644 
	C195.012833,657.235168 185.864563,632.614075 181.856750,606.055237 
	C180.410614,596.472168 180.224869,596.405518 171.718109,596.884521 
	C167.850281,597.102356 166.895554,598.701111 167.669235,602.339722 
	C178.383102,652.728149 204.460876,693.236450 245.838913,723.857605 
	C248.735062,726.000732 251.563263,728.634766 255.497681,729.207458 
	C238.023727,715.024536 222.400009,699.232056 209.678711,679.772644 
M345.015259,554.226135 
	C347.222168,543.491882 344.255432,532.516357 347.393066,521.520020 
	C338.680115,522.377380 331.181824,524.426697 323.855133,527.204102 
	C321.838135,527.968689 320.366852,529.120361 320.370483,531.517212 
	C320.383972,540.341309 320.312103,549.166382 320.427795,557.989014 
	C320.465363,560.853882 321.984497,562.597107 324.981689,561.134033 
	C331.167297,558.114502 337.920807,556.901184 345.015259,554.226135 
M191.576309,417.407593 
	C190.912186,417.406799 190.248062,417.406036 189.583939,417.405182 
	C182.306549,417.395599 182.305267,417.395599 182.305923,424.431854 
	C182.306961,435.555817 182.281555,446.679901 182.343094,457.803528 
	C182.352127,459.437347 181.720978,461.342285 183.805084,463.161377 
	C189.275101,453.863525 194.462494,444.657013 201.627502,437.125061 
	C207.733459,430.706360 206.490051,423.364594 207.275787,415.455353 
	C202.093231,417.224121 197.347595,417.645874 191.576309,417.407593 
M345.851501,430.319458 
	C345.979370,426.506683 345.603821,422.684174 346.336548,418.880432 
	C346.734314,416.815582 345.985077,414.615662 343.549896,415.579407 
	C337.415863,418.007111 331.096283,417.219513 324.824921,417.424042 
	C321.804474,417.522552 320.227783,418.782593 320.295624,421.992401 
	C320.397491,426.811340 320.461731,431.639252 320.280945,436.453491 
	C320.130066,440.471130 322.065643,441.370026 325.549438,440.676544 
	C330.432770,439.704437 335.296875,438.370880 340.230560,437.993164 
	C344.923248,437.633850 346.299805,435.423676 345.851501,430.319458 
M273.223755,458.024780 
	C261.853363,458.623993 255.269745,452.970276 253.299744,441.925018 
	C250.267395,442.954742 248.959274,445.080017 247.006561,446.280853 
	C242.366547,449.134186 242.686493,452.749725 244.954971,456.949554 
	C247.314743,461.318390 250.994263,464.449158 254.695709,467.489380 
	C261.778137,473.306580 259.541473,473.395416 266.854675,468.051331 
	C271.007812,465.016418 275.414703,462.330627 279.663086,459.422974 
	C280.949158,458.542786 282.820435,458.171143 283.060150,455.776581 
	C279.759216,455.562714 277.128265,457.817963 273.223755,458.024780 
M471.651337,469.276459 
	C471.650879,462.112274 471.654663,454.948120 471.648804,447.783936 
	C471.642975,440.692566 468.188141,436.604828 460.780670,434.955994 
	C459.455719,436.628845 459.435852,438.653381 459.422394,440.631653 
	C459.375977,447.462280 459.396912,454.293365 459.393768,461.124298 
	C459.389862,469.610199 462.377106,473.966858 470.642822,477.479034 
	C472.124786,475.209106 471.488953,472.644623 471.651337,469.276459 
M393.631012,548.267151 
	C393.628082,542.786011 393.636902,537.304810 393.619446,531.823730 
	C393.595123,524.190308 388.767273,520.926147 380.807648,523.296692 
	C381.729950,532.358215 381.118103,541.484009 381.324829,550.598938 
	C381.364990,552.370239 380.829315,554.657227 383.009949,555.380005 
	C386.086700,556.400024 389.128754,557.908508 392.577942,557.581116 
	C394.132141,554.824890 393.437958,551.948792 393.631012,548.267151 
M240.317642,525.593628 
	C242.456329,531.047607 241.508163,536.973816 242.756378,543.889404 
	C246.647476,538.181091 249.904678,533.467590 253.064056,528.689392 
	C253.479721,528.060791 253.573212,527.088074 253.514572,526.296997 
	C252.878677,517.718201 249.560562,510.587830 242.258545,505.609619 
	C240.707932,504.552490 239.270920,503.989288 237.951645,505.795898 
	C235.545731,509.090576 232.659271,512.120667 231.654877,516.395081 
	C234.998032,518.844727 238.656845,520.760437 240.317642,525.593628 
M194.560822,469.797913 
	C201.152435,469.796967 206.956177,471.579926 211.579102,477.390686 
	C208.631302,465.402130 205.683273,453.765564 206.249908,441.481628 
	C198.742218,449.891602 192.689926,458.962891 187.275650,469.794189 
	C190.143036,469.794189 191.922379,469.794189 194.560822,469.797913 
M547.321350,507.986938 
	C547.102966,503.013245 546.867004,498.040253 546.670593,493.065674 
	C546.415771,486.611938 543.209290,481.450256 539.545044,476.283325 
	C538.220703,490.011597 537.750183,503.560516 537.323242,517.110779 
	C537.283142,518.382812 537.992493,519.182617 539.284851,519.636475 
	C544.487793,521.463684 547.671631,519.314209 547.646240,513.875549 
	C547.638489,512.215454 547.544434,510.555756 547.321350,507.986938 
M381.328217,433.947357 
	C381.742462,439.698486 386.599274,437.735992 389.696564,438.608246 
	C391.865326,439.218994 393.249390,437.652588 393.367615,435.580231 
	C393.792786,428.126801 394.237854,420.637451 392.370636,413.302490 
	C391.754028,410.880310 390.014557,409.297821 387.296539,409.308380 
	C384.629974,409.318726 382.868378,410.645416 382.280365,413.249359 
	C381.845215,415.176422 381.435608,417.149689 381.376923,419.113190 
	C381.238037,423.756714 381.315155,428.406708 381.328217,433.947357 
M284.891388,486.460175 
	C284.879456,480.641571 284.907166,474.822479 284.834503,469.004639 
	C284.808411,466.915161 284.415863,464.319672 281.533203,465.702484 
	C275.902527,468.403503 270.892120,472.107025 265.911926,476.795776 
	C273.542297,483.012604 279.443054,489.760223 283.738922,497.895050 
	C284.123962,497.700256 284.509033,497.505463 284.894073,497.310669 
	C284.894073,494.019836 284.894073,490.729034 284.891388,486.460175 
M248.229401,437.663727 
	C250.185013,435.747833 253.554398,434.762207 253.547943,431.503601 
	C253.536530,425.748627 254.788483,419.839508 252.369568,414.284485 
	C251.433884,412.135681 249.471085,411.165955 247.050476,411.389923 
	C244.744446,411.603302 243.200882,413.119659 242.869125,415.106384 
	C241.429520,423.727386 241.823929,432.372437 242.472244,441.125366 
	C245.116516,440.738068 246.138855,439.018463 248.229401,437.663727 
M505.267578,500.910156 
	C505.348389,493.455048 507.690430,486.032532 505.607178,478.329346 
	C502.041595,486.058990 497.546539,492.848572 489.583282,497.857208 
	C496.087433,502.115570 499.975189,507.505524 503.267578,513.967834 
	C505.260529,509.498749 504.339172,505.541931 505.267578,500.910156 
M182.314621,534.483582 
	C182.314621,538.487061 182.314621,542.490540 182.314621,546.494019 
	C185.339325,532.973999 189.883194,519.998047 194.578308,507.325623 
	C192.306320,505.652222 190.404068,506.185974 188.626740,505.976929 
	C184.090714,505.443390 181.913467,506.895691 182.208771,512.009277 
	C182.621002,519.147583 182.313538,526.327332 182.314621,534.483582 
M252.856094,565.062927 
	C254.402939,557.428528 253.709152,549.814270 252.375702,541.911987 
	C247.835724,548.626038 241.773376,554.452148 242.324188,563.467712 
	C242.486740,566.128418 243.471558,568.339661 246.290405,569.134399 
	C249.400055,570.011169 251.346863,568.520813 252.856094,565.062927 
M540.947266,426.395050 
	C540.545349,435.179077 540.648865,444.025055 539.582275,452.727631 
	C538.721924,459.747375 541.109375,465.183472 545.804688,471.789917 
	C544.279541,453.490509 544.962769,436.477600 542.901062,419.645905 
	C542.410339,419.662170 541.919678,419.678436 541.429016,419.694702 
	C541.281311,421.639526 541.133606,423.584351 540.947266,426.395050 
M467.573975,430.847992 
	C469.081116,431.744080 470.800903,431.904114 471.141174,429.943542 
	C471.993073,425.035309 472.554260,419.953796 469.875885,415.418060 
	C468.307800,412.762482 465.392242,412.054230 462.422546,412.578705 
	C459.300140,413.130188 459.847931,415.826965 459.388733,418.064728 
	C458.036743,424.653137 462.151825,427.746826 467.573975,430.847992 
M506.286163,444.504211 
	C506.286163,452.151733 506.286163,459.799255 506.286163,467.446747 
	C506.828491,467.456726 507.370819,467.466736 507.913116,467.476715 
	C509.281647,455.905121 510.779297,444.336945 510.664551,432.636078 
	C510.645874,430.731171 509.321503,429.013214 506.287720,428.950073 
	C506.287720,433.978546 506.287720,438.743103 506.286163,444.504211 
M422.517426,473.953552 
	C419.925323,477.782349 415.898315,480.197662 412.187256,483.626404 
	C415.779297,486.500916 419.066467,488.257019 424.078949,488.336121 
	C423.097778,483.207306 425.888062,478.359100 422.517426,473.953552 
M460.581665,512.970093 
	C460.389221,519.299133 465.875763,521.355469 469.058563,525.432129 
	C471.136505,522.997803 470.857880,520.806213 470.476044,518.716980 
	C469.400482,512.832153 465.827454,510.503540 460.581665,512.970093 
M382.283844,562.122864 
	C380.769745,565.922180 381.905914,569.004333 385.301422,570.927612 
	C388.130524,572.529968 390.453735,571.182007 391.934509,568.500427 
	C393.611145,565.464233 391.619446,564.221436 389.172455,563.455017 
	C387.121765,562.812622 384.995514,562.411316 382.283844,562.122864 
M459.799011,478.603668 
	C459.616364,482.830902 461.161835,484.836365 466.375458,483.024658 
	C464.110718,481.086548 463.006134,478.623199 459.799011,478.603668 
z"/>
</svg>